# xmcd CD database file
#
# Track frame offsets:
#	150
#	18762
#	29762
#	54175
#	78950
#	105662
#	113075
#	127162
#	148225
#	173825
#	182675
#	189175
#
# Disc length: 2913 seconds
#
# Revision: 0
# Processed by: cddbd v1.5.1PL0 Copyright (c) Steve Scherf et al.
# Submitted via: CDex 1.51
#
DISCID=9a0b5f0c
DTITLE=Yngwie J. Malmsteen - The Viking's Dream Opus 1
DYEAR=1900
DGENRE=Heavy Metal
TTITLE0=Hiroshima Mon Amour
TTITLE1=Stone Cold Crazy-Japan 1994
TTITLE2=Desert Song
TTITLE3=Lost In Hollywood(Soundboard Recordings)-Japan 1984
TTITLE4=Evil Eye-U.S.A. 1994
TTITLE5=Voodoo Chile
TTITLE6=Manic Depression-U.S.A. 1988
TTITLE7=Final Curtain-Japan 1992
TTITLE8=Kree Nakoorie(Soundboard Recordings)-U.S.A. 1985
TTITLE9=Power
TTITLE10=Lazy(Instrumental)-U.S.A. 1988
TTITLE11=Man On The Silver Mountain(Ronnie James Dio On Vocal)-U.S.A. 1987
EXTD=
EXTT0=
EXTT1=
EXTT2=
EXTT3=
EXTT4=
EXTT5=
EXTT6=
EXTT7=
EXTT8=
EXTT9=
EXTT10=
EXTT11=
PLAYORDER=
